{"title":"As Above So Below 2014 FIRST HDCAM ENGLISH x264 Pimp4003","uid":11089099,"size":1478525008,"categoryP":"video","categoryS":"movies","magnet":"?xt=urn:btih:9505baea6b6d78f8177eb2a3cac25c06e4c6e718&amp;dn=As+Above+So+Below+2014+FIRST+HDCAM+ENGLISH+x264+Pimp4003&amp;tr=udp%3A%2F%2Ftracker.openbittorrent.com%3A80&amp;tr=udp%3A%2F%2Fopen.demonii.com%3A1337&amp;tr=udp%3A%2F%2Ftracker.coppersurfer.tk%3A6969&amp;tr=udp%3A%2F%2Fexodus.desync.com%3A6969","seeders":0,"leechers":0,"uploader":"shawnmurthy","files":-1,"time":1411498629,"description":"AUDIO IS ENGLISH...HAS SPANISH SUBS....VIDEO IS A BIT SHAKY AT START......DID THE USUAL WORKED ON THE CONTRAST, BRIGHTNESS, AND STOPPED THE FLICKERING....AUDIO IS OK...TWEAKED IT A BIT....COULD NOT REMOVE THE SUBS....WAIT FOR BETTER ......ENJOY.....PIMP4003\n &lt;a href=&quot;\nhttp://i.imgur.com/fW5GLTr.jpg&quot; rel=&quot;nofollow&quot; target=&quot;_NEW&quot;&gt;\nhttp://i.imgur.com/fW5GLTr.jpg&lt;/a&gt;\n &lt;a href=&quot;\nhttp://i.imgur.com/UmqI9xw.jpg&quot; rel=&quot;nofollow&quot; target=&quot;_NEW&quot;&gt;\nhttp://i.imgur.com/UmqI9xw.jpg&lt;/a&gt;\n\nCLICK BELOW LINK FOR SCREENSHOTS AND SAMPLE\n\nAs Above So Below 2014 FIRST HDCAM ENGLISH x264 Pimp4003\n\nENJOY\n\nPIMP4003\n\nVideo\nID                                       : 0\nFormat                                   : MPEG-4 Visual\nFormat profile                           : Simple@L1\nFormat settings, BVOP                    : No\nFormat settings, QPel                    : No\nFormat settings, GMC                     : No warppoints\nFormat settings, Matrix                  : Default (H.263)\nCodec ID                                 : XVID\nCodec ID/Hint                            : XviD\nDuration                                 : 1h 27mn\nBit rate                                 : 2 110 Kbps\nWidth                                    : 720 pixels\nHeight                                   : 480 pixels\nDisplay aspect ratio                     : 3:2\nFrame rate                               : 30.000 fps\nStandard                                 : NTSC\nColor space                              : YUV\nChroma subsampling                       : 4:2:0\nBit depth                                : 8 bits\nScan type                                : Progressive\nCompression mode                         : Lossy\nBits/(Pixel*Frame)                       : 0.204\nStream size                              : 1.29 GiB (94%)\nWriting library                          : Lavc52.97.0\n\nAudio\nID                                       : 1\nFormat                                   : MPEG Audio\nFormat version                           : Version 1\nFormat profile                           : Layer 3\nMode                                     : Joint stereo\nMode extension                           : MS Stereo\nCodec ID                                 : 55\nCodec ID/Hint                            : MP3\nDuration                                 : 1h 27mn\nBit rate mode                            : Constant\nBit rate                                 : 128 Kbps\nChannel(s)                               : 2 channels\nSampling rate                            : 48.0 KHz\nCompression mode                         : Lossy\nStream size                              : 80.1 MiB (6%)\nAlignment                                : Aligned on interleaves\nInterleave, duration                     : 24 ms (0.72 video frame)\nWriting library                          : LAME3.98.4\n","torrent":{"xt":"urn:btih:9505baea6b6d78f8177eb2a3cac25c06e4c6e718","amp;dn":"As+Above+So+Below+2014+FIRST+HDCAM+ENGLISH+x264+Pimp4003","amp;tr":["udp%3A%2F%2Ftracker.openbittorrent.com%3A80","udp%3A%2F%2Fopen.demonii.com%3A1337","udp%3A%2F%2Ftracker.coppersurfer.tk%3A6969","udp%3A%2F%2Fexodus.desync.com%3A6969"],"infoHash":"9505baea6b6d78f8177eb2a3cac25c06e4c6e718","infoHashBuffer":{"type":"Buffer","data":[149,5,186,234,107,109,120,248,23,126,178,163,202,194,92,6,228,198,231,24]},"announce":[],"urlList":[]}}